%TF.GenerationSoftware,KiCad,Pcbnew,6.0.5+dfsg-1~bpo11+1*%
%TF.CreationDate,2022-07-20T16:46:59+00:00*%
%TF.ProjectId,xESC2,78455343-322e-46b6-9963-61645f706362,rev?*%
%TF.SameCoordinates,Original*%
%TF.FileFunction,Legend,Top*%
%TF.FilePolarity,Positive*%
%FSLAX46Y46*%
G04 Gerber Fmt 4.6, Leading zero omitted, Abs format (unit mm)*
G04 Created by KiCad (PCBNEW 6.0.5+dfsg-1~bpo11+1) date 2022-07-20 16:46:59*
%MOMM*%
%LPD*%
G01*
G04 APERTURE LIST*
%ADD10C,0.120000*%
%ADD11C,0.100000*%
%ADD12C,0.150000*%
%ADD13C,0.127000*%
%ADD14C,0.200000*%
G04 APERTURE END LIST*
D10*
X247223607Y-123376394D02*
G75*
G03*
X247223607Y-123376394I-223607J0D01*
G01*
D11*
X259517857Y-130213428D02*
X259517857Y-130699142D01*
X259546428Y-130756285D01*
X259575000Y-130784857D01*
X259632142Y-130813428D01*
X259746428Y-130813428D01*
X259803571Y-130784857D01*
X259832142Y-130756285D01*
X259860714Y-130699142D01*
X259860714Y-130213428D01*
X260117857Y-130784857D02*
X260203571Y-130813428D01*
X260346428Y-130813428D01*
X260403571Y-130784857D01*
X260432142Y-130756285D01*
X260460714Y-130699142D01*
X260460714Y-130642000D01*
X260432142Y-130584857D01*
X260403571Y-130556285D01*
X260346428Y-130527714D01*
X260232142Y-130499142D01*
X260175000Y-130470571D01*
X260146428Y-130442000D01*
X260117857Y-130384857D01*
X260117857Y-130327714D01*
X260146428Y-130270571D01*
X260175000Y-130242000D01*
X260232142Y-130213428D01*
X260375000Y-130213428D01*
X260460714Y-130242000D01*
X260917857Y-130499142D02*
X261003571Y-130527714D01*
X261032142Y-130556285D01*
X261060714Y-130613428D01*
X261060714Y-130699142D01*
X261032142Y-130756285D01*
X261003571Y-130784857D01*
X260946428Y-130813428D01*
X260717857Y-130813428D01*
X260717857Y-130213428D01*
X260917857Y-130213428D01*
X260975000Y-130242000D01*
X261003571Y-130270571D01*
X261032142Y-130327714D01*
X261032142Y-130384857D01*
X261003571Y-130442000D01*
X260975000Y-130470571D01*
X260917857Y-130499142D01*
X260717857Y-130499142D01*
X259603571Y-131465142D02*
X259689285Y-131493714D01*
X259717857Y-131522285D01*
X259746428Y-131579428D01*
X259746428Y-131665142D01*
X259717857Y-131722285D01*
X259689285Y-131750857D01*
X259632142Y-131779428D01*
X259403571Y-131779428D01*
X259403571Y-131179428D01*
X259603571Y-131179428D01*
X259660714Y-131208000D01*
X259689285Y-131236571D01*
X259717857Y-131293714D01*
X259717857Y-131350857D01*
X259689285Y-131408000D01*
X259660714Y-131436571D01*
X259603571Y-131465142D01*
X259403571Y-131465142D01*
X260089285Y-131779428D02*
X260032142Y-131750857D01*
X260003571Y-131722285D01*
X259975000Y-131665142D01*
X259975000Y-131493714D01*
X260003571Y-131436571D01*
X260032142Y-131408000D01*
X260089285Y-131379428D01*
X260175000Y-131379428D01*
X260232142Y-131408000D01*
X260260714Y-131436571D01*
X260289285Y-131493714D01*
X260289285Y-131665142D01*
X260260714Y-131722285D01*
X260232142Y-131750857D01*
X260175000Y-131779428D01*
X260089285Y-131779428D01*
X260632142Y-131779428D02*
X260575000Y-131750857D01*
X260546428Y-131722285D01*
X260517857Y-131665142D01*
X260517857Y-131493714D01*
X260546428Y-131436571D01*
X260575000Y-131408000D01*
X260632142Y-131379428D01*
X260717857Y-131379428D01*
X260775000Y-131408000D01*
X260803571Y-131436571D01*
X260832142Y-131493714D01*
X260832142Y-131665142D01*
X260803571Y-131722285D01*
X260775000Y-131750857D01*
X260717857Y-131779428D01*
X260632142Y-131779428D01*
X261003571Y-131379428D02*
X261232142Y-131379428D01*
X261089285Y-131179428D02*
X261089285Y-131693714D01*
X261117857Y-131750857D01*
X261175000Y-131779428D01*
X261232142Y-131779428D01*
D12*
%TO.C,U1*%
X239452380Y-123244999D02*
X239690476Y-123244999D01*
X239595238Y-123483094D02*
X239690476Y-123244999D01*
X239595238Y-123006903D01*
X239880952Y-123387856D02*
X239690476Y-123244999D01*
X239880952Y-123102141D01*
X239452380Y-123244999D02*
X239690476Y-123244999D01*
X239595238Y-123483094D02*
X239690476Y-123244999D01*
X239595238Y-123006903D01*
X239880952Y-123387856D02*
X239690476Y-123244999D01*
X239880952Y-123102141D01*
D10*
%TO.C,R19*%
X254837258Y-117677500D02*
X254362742Y-117677500D01*
X254837258Y-118722500D02*
X254362742Y-118722500D01*
%TO.C,R20*%
X254837258Y-126922500D02*
X254362742Y-126922500D01*
X254837258Y-125877500D02*
X254362742Y-125877500D01*
%TO.C,R21*%
X251337258Y-118722500D02*
X250862742Y-118722500D01*
X251337258Y-117677500D02*
X250862742Y-117677500D01*
%TO.C,R22*%
X254837258Y-125322500D02*
X254362742Y-125322500D01*
X254837258Y-124277500D02*
X254362742Y-124277500D01*
%TO.C,C15*%
X249310000Y-116240580D02*
X249310000Y-115959420D01*
X248290000Y-116240580D02*
X248290000Y-115959420D01*
%TO.C,C11*%
X237890000Y-124159420D02*
X237890000Y-124440580D01*
X238910000Y-124159420D02*
X238910000Y-124440580D01*
%TO.C,C12*%
X244619420Y-113100000D02*
X244900580Y-113100000D01*
X244619420Y-114120000D02*
X244900580Y-114120000D01*
%TO.C,C13*%
X249290000Y-128759420D02*
X249290000Y-129040580D01*
X250310000Y-128759420D02*
X250310000Y-129040580D01*
%TO.C,R16*%
X254837258Y-127477500D02*
X254362742Y-127477500D01*
X254837258Y-128522500D02*
X254362742Y-128522500D01*
%TO.C,C24*%
X236410000Y-127559420D02*
X236410000Y-127840580D01*
X235390000Y-127559420D02*
X235390000Y-127840580D01*
%TO.C,J3*%
X229730000Y-109510000D02*
X229730000Y-119730000D01*
X229730000Y-108240000D02*
X229730000Y-106910000D01*
X229730000Y-119730000D02*
X232390000Y-119730000D01*
X229730000Y-109510000D02*
X232390000Y-109510000D01*
X229730000Y-106910000D02*
X231060000Y-106910000D01*
X232390000Y-109510000D02*
X232390000Y-119730000D01*
%TO.C,D2*%
X252135000Y-127415000D02*
X250665000Y-127415000D01*
X250665000Y-127415000D02*
X250665000Y-129700000D01*
X252135000Y-129700000D02*
X252135000Y-127415000D01*
%TO.C,D3*%
X249325000Y-131025000D02*
X247040000Y-131025000D01*
X249325000Y-132495000D02*
X249325000Y-131025000D01*
X247040000Y-132495000D02*
X249325000Y-132495000D01*
%TO.C,R10*%
X250702742Y-132282500D02*
X251177258Y-132282500D01*
X250702742Y-131237500D02*
X251177258Y-131237500D01*
%TO.C,R11*%
X244502742Y-132282500D02*
X244977258Y-132282500D01*
X244502742Y-131237500D02*
X244977258Y-131237500D01*
%TO.C,R7*%
X257562742Y-105622500D02*
X258037258Y-105622500D01*
X257562742Y-104577500D02*
X258037258Y-104577500D01*
%TO.C,R8*%
X260762742Y-104577500D02*
X261237258Y-104577500D01*
X260762742Y-105622500D02*
X261237258Y-105622500D01*
%TO.C,C22*%
X254740580Y-120310000D02*
X254459420Y-120310000D01*
X254740580Y-119290000D02*
X254459420Y-119290000D01*
%TO.C,C21*%
X254740580Y-116090000D02*
X254459420Y-116090000D01*
X254740580Y-117110000D02*
X254459420Y-117110000D01*
%TO.C,C23*%
X254740580Y-121910000D02*
X254459420Y-121910000D01*
X254740580Y-120890000D02*
X254459420Y-120890000D01*
%TO.C,R15*%
X254837258Y-123622500D02*
X254362742Y-123622500D01*
X254837258Y-122577500D02*
X254362742Y-122577500D01*
%TO.C,C18*%
X259110000Y-125311252D02*
X259110000Y-123888748D01*
X257290000Y-125311252D02*
X257290000Y-123888748D01*
%TO.C,C26*%
X257290000Y-118111252D02*
X257290000Y-116688748D01*
X259110000Y-118111252D02*
X259110000Y-116688748D01*
%TO.C,Q1*%
X266260000Y-122465000D02*
X266260000Y-122115000D01*
X260140000Y-127485000D02*
X266260000Y-127485000D01*
X260140000Y-122415000D02*
X260140000Y-122115000D01*
X260140000Y-127185000D02*
X260140000Y-127485000D01*
X260140000Y-122115000D02*
X266260000Y-122115000D01*
%TO.C,Q3*%
X266260000Y-115265000D02*
X266260000Y-114915000D01*
X260140000Y-115215000D02*
X260140000Y-114915000D01*
X260140000Y-114915000D02*
X266260000Y-114915000D01*
X260140000Y-119985000D02*
X260140000Y-120285000D01*
X260140000Y-120285000D02*
X266260000Y-120285000D01*
%TO.C,Q5*%
X260140000Y-108015000D02*
X260140000Y-107715000D01*
X266260000Y-108065000D02*
X266260000Y-107715000D01*
X260140000Y-113085000D02*
X266260000Y-113085000D01*
X260140000Y-112785000D02*
X260140000Y-113085000D01*
X260140000Y-107715000D02*
X266260000Y-107715000D01*
D13*
%TO.C,J2*%
X229150000Y-120900000D02*
X229150000Y-128700000D01*
X231950000Y-120820000D02*
X229150000Y-120820000D01*
X231950000Y-128780000D02*
X229150000Y-128780000D01*
D14*
X234650000Y-123500000D02*
G75*
G03*
X234650000Y-123500000I-100000J0D01*
G01*
D10*
%TO.C,D1*%
X243850000Y-125700000D02*
X239950000Y-125700000D01*
X243850000Y-123700000D02*
X239950000Y-123700000D01*
X243850000Y-125700000D02*
X243850000Y-123700000D01*
%TO.C,R3*%
X236237258Y-124377500D02*
X235762742Y-124377500D01*
X236237258Y-125422500D02*
X235762742Y-125422500D01*
%TO.C,R2*%
X236237258Y-122777500D02*
X235762742Y-122777500D01*
X236237258Y-123822500D02*
X235762742Y-123822500D01*
%TO.C,Q6*%
X272485000Y-108140000D02*
X272485000Y-114260000D01*
X272185000Y-108140000D02*
X272485000Y-108140000D01*
X267115000Y-108140000D02*
X267115000Y-114260000D01*
X272135000Y-114260000D02*
X272485000Y-114260000D01*
X267415000Y-108140000D02*
X267115000Y-108140000D01*
%TO.C,Q4*%
X272135000Y-121460000D02*
X272485000Y-121460000D01*
X267415000Y-115340000D02*
X267115000Y-115340000D01*
X272485000Y-115340000D02*
X272485000Y-121460000D01*
X272185000Y-115340000D02*
X272485000Y-115340000D01*
X267115000Y-115340000D02*
X267115000Y-121460000D01*
%TO.C,Q2*%
X272485000Y-122540000D02*
X272485000Y-128660000D01*
X267115000Y-122540000D02*
X267115000Y-128660000D01*
X272185000Y-122540000D02*
X272485000Y-122540000D01*
X267415000Y-122540000D02*
X267115000Y-122540000D01*
X272135000Y-128660000D02*
X272485000Y-128660000D01*
%TO.C,C27*%
X259110000Y-110911252D02*
X259110000Y-109488748D01*
X257290000Y-110911252D02*
X257290000Y-109488748D01*
%TO.C,C19*%
X247212516Y-125790000D02*
X247493676Y-125790000D01*
X247212516Y-126810000D02*
X247493676Y-126810000D01*
%TO.C,U5*%
X238900000Y-129260000D02*
X239700000Y-129260000D01*
X238900000Y-126140000D02*
X239700000Y-126140000D01*
X238900000Y-126140000D02*
X237100000Y-126140000D01*
X238900000Y-129260000D02*
X238100000Y-129260000D01*
%TO.C,C14*%
X244490000Y-125659420D02*
X244490000Y-125940580D01*
X245510000Y-125659420D02*
X245510000Y-125940580D01*
%TO.C,R4*%
X237252500Y-108062742D02*
X237252500Y-108537258D01*
X238297500Y-108062742D02*
X238297500Y-108537258D01*
%TO.C,R5*%
X239897500Y-108062742D02*
X239897500Y-108537258D01*
X238852500Y-108062742D02*
X238852500Y-108537258D01*
%TO.C,C1*%
X236685000Y-111259420D02*
X236685000Y-111540580D01*
X235665000Y-111259420D02*
X235665000Y-111540580D01*
%TO.C,C2*%
X238285000Y-111259420D02*
X238285000Y-111540580D01*
X237265000Y-111259420D02*
X237265000Y-111540580D01*
%TO.C,C3*%
X239885000Y-111259420D02*
X239885000Y-111540580D01*
X238865000Y-111259420D02*
X238865000Y-111540580D01*
%TO.C,R6*%
X241497500Y-108062742D02*
X241497500Y-108537258D01*
X240452500Y-108062742D02*
X240452500Y-108537258D01*
%TO.C,R1*%
X236697500Y-108062742D02*
X236697500Y-108537258D01*
X235652500Y-108062742D02*
X235652500Y-108537258D01*
%TO.C,C4*%
X241485000Y-111259420D02*
X241485000Y-111540580D01*
X240465000Y-111259420D02*
X240465000Y-111540580D01*
%TO.C,R9*%
X258037258Y-107247500D02*
X257562742Y-107247500D01*
X258037258Y-106202500D02*
X257562742Y-106202500D01*
%TO.C,TH1*%
X261237258Y-107247500D02*
X260762742Y-107247500D01*
X261237258Y-106202500D02*
X260762742Y-106202500D01*
%TO.C,U3*%
X252389535Y-122735876D02*
X252725411Y-122400000D01*
X249741420Y-119416009D02*
X250077296Y-119751885D01*
X249741420Y-125383991D02*
X249405544Y-125048115D01*
X247093305Y-122064124D02*
X246757429Y-122400000D01*
X252725411Y-122400000D02*
X252389535Y-122064124D01*
X249405544Y-119751885D02*
X249741420Y-119416009D01*
X250077296Y-125048115D02*
X249741420Y-125383991D01*
%TO.C,R18*%
X252950000Y-113612064D02*
X252950000Y-109257936D01*
X256370000Y-113612064D02*
X256370000Y-109257936D01*
%TO.C,C25*%
X242610000Y-127559420D02*
X242610000Y-127840580D01*
X241590000Y-127559420D02*
X241590000Y-127840580D01*
%TO.C,C20*%
X250959420Y-113910000D02*
X251240580Y-113910000D01*
X250959420Y-112890000D02*
X251240580Y-112890000D01*
%TO.C,Y1*%
X241900000Y-106850000D02*
X241900000Y-110150000D01*
X241900000Y-110150000D02*
X245900000Y-110150000D01*
%TO.C,U2*%
X233090000Y-116900000D02*
X233090000Y-113900000D01*
X238310000Y-119900000D02*
X238310000Y-113900000D01*
%TO.C,C17*%
X250959420Y-115510000D02*
X251240580Y-115510000D01*
X250959420Y-114490000D02*
X251240580Y-114490000D01*
%TO.C,C6*%
X243159420Y-110590000D02*
X243440580Y-110590000D01*
X243159420Y-111610000D02*
X243440580Y-111610000D01*
%TO.C,R17*%
X250862742Y-116077500D02*
X251337258Y-116077500D01*
X250862742Y-117122500D02*
X251337258Y-117122500D01*
%TO.C,C8*%
X250559420Y-126810000D02*
X250840580Y-126810000D01*
X250559420Y-125790000D02*
X250840580Y-125790000D01*
%TO.C,R13*%
X246077500Y-129137258D02*
X246077500Y-128662742D01*
X247122500Y-129137258D02*
X247122500Y-128662742D01*
%TO.C,C7*%
X241579420Y-113100000D02*
X241860580Y-113100000D01*
X241579420Y-114120000D02*
X241860580Y-114120000D01*
%TO.C,R12*%
X246162742Y-111622500D02*
X246637258Y-111622500D01*
X246162742Y-110577500D02*
X246637258Y-110577500D01*
%TO.C,C5*%
X246390000Y-108440580D02*
X246390000Y-108159420D01*
X247410000Y-108440580D02*
X247410000Y-108159420D01*
%TO.C,C16*%
X236140580Y-122210000D02*
X235859420Y-122210000D01*
X236140580Y-121190000D02*
X235859420Y-121190000D01*
%TO.C,J5*%
X258180000Y-129670000D02*
X258180000Y-131000000D01*
X255580000Y-129670000D02*
X252980000Y-129670000D01*
X255580000Y-129670000D02*
X255580000Y-132330000D01*
X255580000Y-132330000D02*
X252980000Y-132330000D01*
X252980000Y-129670000D02*
X252980000Y-132330000D01*
X256850000Y-129670000D02*
X258180000Y-129670000D01*
D13*
%TO.C,U4*%
X249965000Y-108930000D02*
X250635000Y-108930000D01*
X248850000Y-110060000D02*
X248850000Y-109400000D01*
X251750000Y-109400000D02*
X251750000Y-110060000D01*
D14*
X249350000Y-112140000D02*
G75*
G03*
X249350000Y-112140000I-100000J0D01*
G01*
D10*
%TO.C,R14*%
X244477500Y-128662742D02*
X244477500Y-129137258D01*
X245522500Y-128662742D02*
X245522500Y-129137258D01*
%TO.C,U1*%
X245821640Y-122432199D02*
X246432200Y-122432199D01*
X246432200Y-115167799D02*
X245821640Y-115167799D01*
X239167800Y-122432199D02*
X239778360Y-122432199D01*
X246432200Y-115778359D02*
X246432200Y-115167799D01*
X239167800Y-121821639D02*
X239167800Y-122432199D01*
X246432200Y-122432199D02*
X246432200Y-121821639D01*
X239167800Y-115167799D02*
X239167800Y-115778359D01*
X239778360Y-115167799D02*
X239167800Y-115167799D01*
G36*
X245190501Y-114735999D02*
G01*
X244809501Y-114735999D01*
X244809501Y-114481999D01*
X245190501Y-114481999D01*
X245190501Y-114735999D01*
G37*
D11*
X245190501Y-114735999D02*
X244809501Y-114735999D01*
X244809501Y-114481999D01*
X245190501Y-114481999D01*
X245190501Y-114735999D01*
G36*
X243990501Y-123117999D02*
G01*
X243609501Y-123117999D01*
X243609501Y-122863999D01*
X243990501Y-122863999D01*
X243990501Y-123117999D01*
G37*
X243990501Y-123117999D02*
X243609501Y-123117999D01*
X243609501Y-122863999D01*
X243990501Y-122863999D01*
X243990501Y-123117999D01*
G36*
X241190501Y-114735999D02*
G01*
X240809501Y-114735999D01*
X240809501Y-114481999D01*
X241190501Y-114481999D01*
X241190501Y-114735999D01*
G37*
X241190501Y-114735999D02*
X240809501Y-114735999D01*
X240809501Y-114481999D01*
X241190501Y-114481999D01*
X241190501Y-114735999D01*
G36*
X238736000Y-119190499D02*
G01*
X238482000Y-119190499D01*
X238482000Y-118809499D01*
X238736000Y-118809499D01*
X238736000Y-119190499D01*
G37*
X238736000Y-119190499D02*
X238482000Y-119190499D01*
X238482000Y-118809499D01*
X238736000Y-118809499D01*
X238736000Y-119190499D01*
G36*
X247118000Y-119590498D02*
G01*
X246864000Y-119590498D01*
X246864000Y-119209498D01*
X247118000Y-119209498D01*
X247118000Y-119590498D01*
G37*
X247118000Y-119590498D02*
X246864000Y-119590498D01*
X246864000Y-119209498D01*
X247118000Y-119209498D01*
X247118000Y-119590498D01*
D10*
%TO.C,C9*%
X247690000Y-128759420D02*
X247690000Y-129040580D01*
X248710000Y-128759420D02*
X248710000Y-129040580D01*
%TO.C,C10*%
X247940580Y-114120000D02*
X247659420Y-114120000D01*
X247940580Y-113100000D02*
X247659420Y-113100000D01*
%TD*%
M02*
