%TF.GenerationSoftware,KiCad,Pcbnew,6.0.5+dfsg-1~bpo11+1*%
%TF.CreationDate,2022-07-20T16:46:59+00:00*%
%TF.ProjectId,xESC2,78455343-322e-46b6-9963-61645f706362,rev?*%
%TF.SameCoordinates,Original*%
%TF.FileFunction,Legend,Bot*%
%TF.FilePolarity,Positive*%
%FSLAX46Y46*%
G04 Gerber Fmt 4.6, Leading zero omitted, Abs format (unit mm)*
G04 Created by KiCad (PCBNEW 6.0.5+dfsg-1~bpo11+1) date 2022-07-20 16:46:59*
%MOMM*%
%LPD*%
G01*
G04 APERTURE LIST*
%ADD10C,0.150000*%
%ADD11C,0.120000*%
G04 APERTURE END LIST*
D10*
X270377619Y-122953571D02*
X271044285Y-122482142D01*
X271044285Y-122953571D02*
X270377619Y-122482142D01*
X270901428Y-122139285D02*
X270901428Y-121839285D01*
X270377619Y-121710714D02*
X270377619Y-122139285D01*
X271377619Y-122139285D01*
X271377619Y-121710714D01*
X270425238Y-121367857D02*
X270377619Y-121239285D01*
X270377619Y-121025000D01*
X270425238Y-120939285D01*
X270472857Y-120896428D01*
X270568095Y-120853571D01*
X270663333Y-120853571D01*
X270758571Y-120896428D01*
X270806190Y-120939285D01*
X270853809Y-121025000D01*
X270901428Y-121196428D01*
X270949047Y-121282142D01*
X270996666Y-121325000D01*
X271091904Y-121367857D01*
X271187142Y-121367857D01*
X271282380Y-121325000D01*
X271330000Y-121282142D01*
X271377619Y-121196428D01*
X271377619Y-120982142D01*
X271330000Y-120853571D01*
X270472857Y-119953571D02*
X270425238Y-119996428D01*
X270377619Y-120125000D01*
X270377619Y-120210714D01*
X270425238Y-120339285D01*
X270520476Y-120425000D01*
X270615714Y-120467857D01*
X270806190Y-120510714D01*
X270949047Y-120510714D01*
X271139523Y-120467857D01*
X271234761Y-120425000D01*
X271330000Y-120339285D01*
X271377619Y-120210714D01*
X271377619Y-120125000D01*
X271330000Y-119996428D01*
X271282380Y-119953571D01*
X270377619Y-118367857D02*
X270853809Y-118667857D01*
X270377619Y-118882142D02*
X271377619Y-118882142D01*
X271377619Y-118539285D01*
X271330000Y-118453571D01*
X271282380Y-118410714D01*
X271187142Y-118367857D01*
X271044285Y-118367857D01*
X270949047Y-118410714D01*
X270901428Y-118453571D01*
X270853809Y-118539285D01*
X270853809Y-118882142D01*
X270377619Y-117982142D02*
X271377619Y-117982142D01*
X271377619Y-117639285D01*
X271330000Y-117553571D01*
X271282380Y-117510714D01*
X271187142Y-117467857D01*
X271044285Y-117467857D01*
X270949047Y-117510714D01*
X270901428Y-117553571D01*
X270853809Y-117639285D01*
X270853809Y-117982142D01*
X271282380Y-117125000D02*
X271330000Y-117082142D01*
X271377619Y-116996428D01*
X271377619Y-116782142D01*
X271330000Y-116696428D01*
X271282380Y-116653571D01*
X271187142Y-116610714D01*
X271091904Y-116610714D01*
X270949047Y-116653571D01*
X270377619Y-117167857D01*
X270377619Y-116610714D01*
X271377619Y-116053571D02*
X271377619Y-115967857D01*
X271330000Y-115882142D01*
X271282380Y-115839285D01*
X271187142Y-115796428D01*
X270996666Y-115753571D01*
X270758571Y-115753571D01*
X270568095Y-115796428D01*
X270472857Y-115839285D01*
X270425238Y-115882142D01*
X270377619Y-115967857D01*
X270377619Y-116053571D01*
X270425238Y-116139285D01*
X270472857Y-116182142D01*
X270568095Y-116225000D01*
X270758571Y-116267857D01*
X270996666Y-116267857D01*
X271187142Y-116225000D01*
X271282380Y-116182142D01*
X271330000Y-116139285D01*
X271377619Y-116053571D01*
X271044285Y-114982142D02*
X270377619Y-114982142D01*
X271425238Y-115196428D02*
X270710952Y-115410714D01*
X270710952Y-114853571D01*
X271377619Y-114339285D02*
X271377619Y-114253571D01*
X271330000Y-114167857D01*
X271282380Y-114125000D01*
X271187142Y-114082142D01*
X270996666Y-114039285D01*
X270758571Y-114039285D01*
X270568095Y-114082142D01*
X270472857Y-114125000D01*
X270425238Y-114167857D01*
X270377619Y-114253571D01*
X270377619Y-114339285D01*
X270425238Y-114425000D01*
X270472857Y-114467857D01*
X270568095Y-114510714D01*
X270758571Y-114553571D01*
X270996666Y-114553571D01*
X271187142Y-114510714D01*
X271282380Y-114467857D01*
X271330000Y-114425000D01*
X271377619Y-114339285D01*
X269434285Y-120403571D02*
X268767619Y-120189285D01*
X269434285Y-119975000D01*
X268767619Y-119160714D02*
X268767619Y-119675000D01*
X268767619Y-119417857D02*
X269767619Y-119417857D01*
X269624761Y-119503571D01*
X269529523Y-119589285D01*
X269481904Y-119675000D01*
X268862857Y-118775000D02*
X268815238Y-118732142D01*
X268767619Y-118775000D01*
X268815238Y-118817857D01*
X268862857Y-118775000D01*
X268767619Y-118775000D01*
X269767619Y-118175000D02*
X269767619Y-118089285D01*
X269720000Y-118003571D01*
X269672380Y-117960714D01*
X269577142Y-117917857D01*
X269386666Y-117875000D01*
X269148571Y-117875000D01*
X268958095Y-117917857D01*
X268862857Y-117960714D01*
X268815238Y-118003571D01*
X268767619Y-118089285D01*
X268767619Y-118175000D01*
X268815238Y-118260714D01*
X268862857Y-118303571D01*
X268958095Y-118346428D01*
X269148571Y-118389285D01*
X269386666Y-118389285D01*
X269577142Y-118346428D01*
X269672380Y-118303571D01*
X269720000Y-118260714D01*
X269767619Y-118175000D01*
X268862857Y-117489285D02*
X268815238Y-117446428D01*
X268767619Y-117489285D01*
X268815238Y-117532142D01*
X268862857Y-117489285D01*
X268767619Y-117489285D01*
X268767619Y-116589285D02*
X268767619Y-117103571D01*
X268767619Y-116846428D02*
X269767619Y-116846428D01*
X269624761Y-116932142D01*
X269529523Y-117017857D01*
X269481904Y-117103571D01*
%TO.C,R23*%
X232202380Y-110757142D02*
X231726190Y-110423809D01*
X232202380Y-110185714D02*
X231202380Y-110185714D01*
X231202380Y-110566666D01*
X231250000Y-110661904D01*
X231297619Y-110709523D01*
X231392857Y-110757142D01*
X231535714Y-110757142D01*
X231630952Y-110709523D01*
X231678571Y-110661904D01*
X231726190Y-110566666D01*
X231726190Y-110185714D01*
X231297619Y-111138095D02*
X231250000Y-111185714D01*
X231202380Y-111280952D01*
X231202380Y-111519047D01*
X231250000Y-111614285D01*
X231297619Y-111661904D01*
X231392857Y-111709523D01*
X231488095Y-111709523D01*
X231630952Y-111661904D01*
X232202380Y-111090476D01*
X232202380Y-111709523D01*
X231202380Y-112042857D02*
X231202380Y-112661904D01*
X231583333Y-112328571D01*
X231583333Y-112471428D01*
X231630952Y-112566666D01*
X231678571Y-112614285D01*
X231773809Y-112661904D01*
X232011904Y-112661904D01*
X232107142Y-112614285D01*
X232154761Y-112566666D01*
X232202380Y-112471428D01*
X232202380Y-112185714D01*
X232154761Y-112090476D01*
X232107142Y-112042857D01*
D11*
%TO.C,J4*%
X232330000Y-132430000D02*
X242550000Y-132430000D01*
X242550000Y-129770000D02*
X242550000Y-132430000D01*
X232330000Y-129770000D02*
X242550000Y-129770000D01*
X229730000Y-129770000D02*
X229730000Y-131100000D01*
X231060000Y-129770000D02*
X229730000Y-129770000D01*
X232330000Y-129770000D02*
X232330000Y-132430000D01*
%TO.C,J7*%
X265350000Y-104370000D02*
X265350000Y-107030000D01*
X264080000Y-104370000D02*
X262750000Y-104370000D01*
X278110000Y-104370000D02*
X278110000Y-107030000D01*
X265350000Y-107030000D02*
X278110000Y-107030000D01*
X262750000Y-104370000D02*
X262750000Y-105700000D01*
X265350000Y-104370000D02*
X278110000Y-104370000D01*
%TO.C,J8*%
X265350000Y-129770000D02*
X278110000Y-129770000D01*
X265350000Y-129770000D02*
X265350000Y-132430000D01*
X265350000Y-132430000D02*
X278110000Y-132430000D01*
X264080000Y-129770000D02*
X262750000Y-129770000D01*
X262750000Y-129770000D02*
X262750000Y-131100000D01*
X278110000Y-129770000D02*
X278110000Y-132430000D01*
%TO.C,J10*%
X275510000Y-113380000D02*
X278110000Y-113380000D01*
X272910000Y-113380000D02*
X274240000Y-113380000D01*
X272910000Y-110780000D02*
X272910000Y-108180000D01*
X272910000Y-108180000D02*
X278110000Y-108180000D01*
X272910000Y-112050000D02*
X272910000Y-113380000D01*
X278110000Y-113380000D02*
X278110000Y-108180000D01*
X275510000Y-110780000D02*
X275510000Y-113380000D01*
X272910000Y-110780000D02*
X275510000Y-110780000D01*
%TO.C,J9*%
X275510000Y-121000000D02*
X278110000Y-121000000D01*
X272910000Y-118400000D02*
X275510000Y-118400000D01*
X272910000Y-118400000D02*
X272910000Y-115800000D01*
X272910000Y-115800000D02*
X278110000Y-115800000D01*
X272910000Y-119670000D02*
X272910000Y-121000000D01*
X278110000Y-121000000D02*
X278110000Y-115800000D01*
X275510000Y-118400000D02*
X275510000Y-121000000D01*
X272910000Y-121000000D02*
X274240000Y-121000000D01*
%TO.C,J6*%
X272910000Y-126020000D02*
X275510000Y-126020000D01*
X275510000Y-128620000D02*
X278110000Y-128620000D01*
X272910000Y-128620000D02*
X274240000Y-128620000D01*
X275510000Y-126020000D02*
X275510000Y-128620000D01*
X272910000Y-127290000D02*
X272910000Y-128620000D01*
X278110000Y-128620000D02*
X278110000Y-123420000D01*
X272910000Y-126020000D02*
X272910000Y-123420000D01*
X272910000Y-123420000D02*
X278110000Y-123420000D01*
%TO.C,U7*%
X249855000Y-111464524D02*
X249855000Y-109264524D01*
X243085000Y-111464524D02*
X243085000Y-107864524D01*
X243085000Y-111464524D02*
X243085000Y-113664524D01*
X249855000Y-111464524D02*
X249855000Y-113664524D01*
%TO.C,R23*%
X232665000Y-111172936D02*
X232665000Y-111627064D01*
X234135000Y-111172936D02*
X234135000Y-111627064D01*
%TO.C,U6*%
X238200000Y-109040000D02*
X236250000Y-109040000D01*
X238200000Y-114160000D02*
X236250000Y-114160000D01*
X238200000Y-109040000D02*
X241650000Y-109040000D01*
X238200000Y-114160000D02*
X240150000Y-114160000D01*
%TO.C,C29*%
X257390000Y-109340580D02*
X257390000Y-109059420D01*
X258410000Y-109340580D02*
X258410000Y-109059420D01*
%TO.C,J1*%
X232320000Y-107030000D02*
X252700000Y-107030000D01*
X229720000Y-104370000D02*
X229720000Y-105700000D01*
X252700000Y-104370000D02*
X252700000Y-107030000D01*
X231050000Y-104370000D02*
X229720000Y-104370000D01*
X232320000Y-104370000D02*
X232320000Y-107030000D01*
X232320000Y-104370000D02*
X252700000Y-104370000D01*
%TO.C,Y2*%
X258800000Y-110950000D02*
X258800000Y-107650000D01*
X258800000Y-107650000D02*
X262800000Y-107650000D01*
%TO.C,C28*%
X263190000Y-109059420D02*
X263190000Y-109340580D01*
X264210000Y-109059420D02*
X264210000Y-109340580D01*
%TO.C,R24*%
X251722500Y-114037258D02*
X251722500Y-113562742D01*
X250677500Y-114037258D02*
X250677500Y-113562742D01*
%TD*%
M02*
